<?xml version="1.0" encoding="UTF-8" standalone="no"?>
<!-- Created with Inkscape (http://www.inkscape.org/) -->

<svg
   xmlns:dc="http://purl.org/dc/elements/1.1/"
   xmlns:cc="http://creativecommons.org/ns#"
   xmlns:rdf="http://www.w3.org/1999/02/22-rdf-syntax-ns#"
   xmlns:svg="http://www.w3.org/2000/svg"
   xmlns="http://www.w3.org/2000/svg"
   xmlns:sodipodi="http://sodipodi.sourceforge.net/DTD/sodipodi-0.dtd"
   xmlns:inkscape="http://www.inkscape.org/namespaces/inkscape"
   width="1052.3622"
   height="744.09448"
   id="svg3039"
   version="1.1"
   inkscape:version="0.48.3.1 r9886"
   sodipodi:docname="dot_10x7_8mm_radius_8mm_separation.pdf">
  <defs
     id="defs3041" />
  <sodipodi:namedview
     id="base"
     pagecolor="#ffffff"
     bordercolor="#666666"
     borderopacity="1.0"
     inkscape:pageopacity="0.0"
     inkscape:pageshadow="2"
     inkscape:zoom="1.4"
     inkscape:cx="511.11649"
     inkscape:cy="251.05607"
     inkscape:document-units="px"
     inkscape:current-layer="layer1"
     showgrid="true"
     inkscape:window-width="1680"
     inkscape:window-height="921"
     inkscape:window-x="0"
     inkscape:window-y="50"
     inkscape:window-maximized="1">
    <inkscape:grid
       type="xygrid"
       id="grid3047"
       empspacing="5"
       visible="true"
       enabled="true"
       snapvisiblegridlinesonly="false"
       units="mm"
       spacingx="4mm"
       spacingy="4mm" />
  </sodipodi:namedview>
  <metadata
     id="metadata3044">
    <rdf:RDF>
      <cc:Work
         rdf:about="">
        <dc:format>image/svg+xml</dc:format>
        <dc:type
           rdf:resource="http://purl.org/dc/dcmitype/StillImage" />
        <dc:title></dc:title>
      </cc:Work>
    </rdf:RDF>
  </metadata>
  <g
     inkscape:label="Layer 1"
     inkscape:groupmode="layer"
     id="layer1"
     transform="translate(0,-308.2677)">
    <path
       sodipodi:type="arc"
       style="fill:#000000;fill-opacity:1;stroke:#000000;stroke-width:0.5;stroke-linecap:round;stroke-miterlimit:4;stroke-opacity:1;stroke-dasharray:none;stroke-dashoffset:0"
       id="path3049"
       sodipodi:cx="141.73228"
       sodipodi:cy="106.29921"
       sodipodi:rx="28.346457"
       sodipodi:ry="28.346457"
       d="m 170.07874,106.29921 a 28.346457,28.346457 0 1 1 -56.69291,0 28.346457,28.346457 0 1 1 56.69291,0 z"
       transform="translate(-1.2465349e-6,322.44093)" />
    <path
       transform="translate(85.039371,322.44093)"
       sodipodi:type="arc"
       style="fill:#000000;fill-opacity:1;stroke:#000000;stroke-width:0.5;stroke-linecap:round;stroke-miterlimit:4;stroke-opacity:1;stroke-dasharray:none;stroke-dashoffset:0"
       id="path3049-1"
       sodipodi:cx="141.73228"
       sodipodi:cy="106.29921"
       sodipodi:rx="28.346457"
       sodipodi:ry="28.346457"
       d="m 170.07874,106.29921 a 28.346457,28.346457 0 1 1 -56.69291,0 28.346457,28.346457 0 1 1 56.69291,0 z" />
    <path
       transform="translate(170.07874,322.44093)"
       sodipodi:type="arc"
       style="fill:#000000;fill-opacity:1;stroke:#000000;stroke-width:0.5;stroke-linecap:round;stroke-miterlimit:4;stroke-opacity:1;stroke-dasharray:none;stroke-dashoffset:0"
       id="path3049-2"
       sodipodi:cx="141.73228"
       sodipodi:cy="106.29921"
       sodipodi:rx="28.346457"
       sodipodi:ry="28.346457"
       d="m 170.07874,106.29921 a 28.346457,28.346457 0 1 1 -56.69291,0 28.346457,28.346457 0 1 1 56.69291,0 z" />
    <path
       transform="translate(255.11811,322.44093)"
       sodipodi:type="arc"
       style="fill:#000000;fill-opacity:1;stroke:#000000;stroke-width:0.5;stroke-linecap:round;stroke-miterlimit:4;stroke-opacity:1;stroke-dasharray:none;stroke-dashoffset:0"
       id="path3049-5"
       sodipodi:cx="141.73228"
       sodipodi:cy="106.29921"
       sodipodi:rx="28.346457"
       sodipodi:ry="28.346457"
       d="m 170.07874,106.29921 a 28.346457,28.346457 0 1 1 -56.69291,0 28.346457,28.346457 0 1 1 56.69291,0 z" />
    <path
       transform="translate(340.15748,322.44093)"
       sodipodi:type="arc"
       style="fill:#000000;fill-opacity:1;stroke:#000000;stroke-width:0.5;stroke-linecap:round;stroke-miterlimit:4;stroke-opacity:1;stroke-dasharray:none;stroke-dashoffset:0"
       id="path3049-6"
       sodipodi:cx="141.73228"
       sodipodi:cy="106.29921"
       sodipodi:rx="28.346457"
       sodipodi:ry="28.346457"
       d="m 170.07874,106.29921 a 28.346457,28.346457 0 1 1 -56.69291,0 28.346457,28.346457 0 1 1 56.69291,0 z" />
    <path
       transform="translate(425.19685,322.44093)"
       sodipodi:type="arc"
       style="fill:#000000;fill-opacity:1;stroke:#000000;stroke-width:0.5;stroke-linecap:round;stroke-miterlimit:4;stroke-opacity:1;stroke-dasharray:none;stroke-dashoffset:0"
       id="path3049-27"
       sodipodi:cx="141.73228"
       sodipodi:cy="106.29921"
       sodipodi:rx="28.346457"
       sodipodi:ry="28.346457"
       d="m 170.07874,106.29921 a 28.346457,28.346457 0 1 1 -56.69291,0 28.346457,28.346457 0 1 1 56.69291,0 z" />
    <path
       transform="translate(510.23622,322.44093)"
       sodipodi:type="arc"
       style="fill:#000000;fill-opacity:1;stroke:#000000;stroke-width:0.5;stroke-linecap:round;stroke-miterlimit:4;stroke-opacity:1;stroke-dasharray:none;stroke-dashoffset:0"
       id="path3049-8"
       sodipodi:cx="141.73228"
       sodipodi:cy="106.29921"
       sodipodi:rx="28.346457"
       sodipodi:ry="28.346457"
       d="m 170.07874,106.29921 a 28.346457,28.346457 0 1 1 -56.69291,0 28.346457,28.346457 0 1 1 56.69291,0 z" />
    <path
       transform="translate(595.27559,322.44093)"
       sodipodi:type="arc"
       style="fill:#000000;fill-opacity:1;stroke:#000000;stroke-width:0.5;stroke-linecap:round;stroke-miterlimit:4;stroke-opacity:1;stroke-dasharray:none;stroke-dashoffset:0"
       id="path3049-0"
       sodipodi:cx="141.73228"
       sodipodi:cy="106.29921"
       sodipodi:rx="28.346457"
       sodipodi:ry="28.346457"
       d="m 170.07874,106.29921 a 28.346457,28.346457 0 1 1 -56.69291,0 28.346457,28.346457 0 1 1 56.69291,0 z" />
    <path
       transform="translate(680.31496,322.44093)"
       sodipodi:type="arc"
       style="fill:#000000;fill-opacity:1;stroke:#000000;stroke-width:0.5;stroke-linecap:round;stroke-miterlimit:4;stroke-opacity:1;stroke-dasharray:none;stroke-dashoffset:0"
       id="path3049-9"
       sodipodi:cx="141.73228"
       sodipodi:cy="106.29921"
       sodipodi:rx="28.346457"
       sodipodi:ry="28.346457"
       d="m 170.07874,106.29921 a 28.346457,28.346457 0 1 1 -56.69291,0 28.346457,28.346457 0 1 1 56.69291,0 z" />
    <path
       transform="translate(765.35433,322.44093)"
       sodipodi:type="arc"
       style="fill:#000000;fill-opacity:1;stroke:#000000;stroke-width:0.5;stroke-linecap:round;stroke-miterlimit:4;stroke-opacity:1;stroke-dasharray:none;stroke-dashoffset:0"
       id="path3049-7"
       sodipodi:cx="141.73228"
       sodipodi:cy="106.29921"
       sodipodi:rx="28.346457"
       sodipodi:ry="28.346457"
       d="m 170.07874,106.29921 a 28.346457,28.346457 0 1 1 -56.69291,0 28.346457,28.346457 0 1 1 56.69291,0 z" />
    <path
       transform="translate(7.3527658e-7,407.4803)"
       sodipodi:type="arc"
       style="fill:#000000;fill-opacity:1;stroke:#000000;stroke-width:0.5;stroke-linecap:round;stroke-miterlimit:4;stroke-opacity:1;stroke-dasharray:none;stroke-dashoffset:0"
       id="path3049-16"
       sodipodi:cx="141.73228"
       sodipodi:cy="106.29921"
       sodipodi:rx="28.346457"
       sodipodi:ry="28.346457"
       d="m 170.07874,106.29921 a 28.346457,28.346457 0 1 1 -56.69291,0 28.346457,28.346457 0 1 1 56.69291,0 z" />
    <path
       transform="translate(85.039375,407.4803)"
       sodipodi:type="arc"
       style="fill:#000000;fill-opacity:1;stroke:#000000;stroke-width:0.5;stroke-linecap:round;stroke-miterlimit:4;stroke-opacity:1;stroke-dasharray:none;stroke-dashoffset:0"
       id="path3049-1-6"
       sodipodi:cx="141.73228"
       sodipodi:cy="106.29921"
       sodipodi:rx="28.346457"
       sodipodi:ry="28.346457"
       d="m 170.07874,106.29921 a 28.346457,28.346457 0 1 1 -56.69291,0 28.346457,28.346457 0 1 1 56.69291,0 z" />
    <path
       transform="translate(170.07874,407.4803)"
       sodipodi:type="arc"
       style="fill:#000000;fill-opacity:1;stroke:#000000;stroke-width:0.5;stroke-linecap:round;stroke-miterlimit:4;stroke-opacity:1;stroke-dasharray:none;stroke-dashoffset:0"
       id="path3049-2-0"
       sodipodi:cx="141.73228"
       sodipodi:cy="106.29921"
       sodipodi:rx="28.346457"
       sodipodi:ry="28.346457"
       d="m 170.07874,106.29921 a 28.346457,28.346457 0 1 1 -56.69291,0 28.346457,28.346457 0 1 1 56.69291,0 z" />
    <path
       transform="translate(255.11811,407.4803)"
       sodipodi:type="arc"
       style="fill:#000000;fill-opacity:1;stroke:#000000;stroke-width:0.5;stroke-linecap:round;stroke-miterlimit:4;stroke-opacity:1;stroke-dasharray:none;stroke-dashoffset:0"
       id="path3049-5-5"
       sodipodi:cx="141.73228"
       sodipodi:cy="106.29921"
       sodipodi:rx="28.346457"
       sodipodi:ry="28.346457"
       d="m 170.07874,106.29921 a 28.346457,28.346457 0 1 1 -56.69291,0 28.346457,28.346457 0 1 1 56.69291,0 z" />
    <path
       transform="translate(340.15748,407.4803)"
       sodipodi:type="arc"
       style="fill:#000000;fill-opacity:1;stroke:#000000;stroke-width:0.5;stroke-linecap:round;stroke-miterlimit:4;stroke-opacity:1;stroke-dasharray:none;stroke-dashoffset:0"
       id="path3049-6-9"
       sodipodi:cx="141.73228"
       sodipodi:cy="106.29921"
       sodipodi:rx="28.346457"
       sodipodi:ry="28.346457"
       d="m 170.07874,106.29921 a 28.346457,28.346457 0 1 1 -56.69291,0 28.346457,28.346457 0 1 1 56.69291,0 z" />
    <path
       transform="translate(425.19685,407.4803)"
       sodipodi:type="arc"
       style="fill:#000000;fill-opacity:1;stroke:#000000;stroke-width:0.5;stroke-linecap:round;stroke-miterlimit:4;stroke-opacity:1;stroke-dasharray:none;stroke-dashoffset:0"
       id="path3049-27-6"
       sodipodi:cx="141.73228"
       sodipodi:cy="106.29921"
       sodipodi:rx="28.346457"
       sodipodi:ry="28.346457"
       d="m 170.07874,106.29921 a 28.346457,28.346457 0 1 1 -56.69291,0 28.346457,28.346457 0 1 1 56.69291,0 z" />
    <path
       transform="translate(510.23622,407.4803)"
       sodipodi:type="arc"
       style="fill:#000000;fill-opacity:1;stroke:#000000;stroke-width:0.5;stroke-linecap:round;stroke-miterlimit:4;stroke-opacity:1;stroke-dasharray:none;stroke-dashoffset:0"
       id="path3049-8-1"
       sodipodi:cx="141.73228"
       sodipodi:cy="106.29921"
       sodipodi:rx="28.346457"
       sodipodi:ry="28.346457"
       d="m 170.07874,106.29921 a 28.346457,28.346457 0 1 1 -56.69291,0 28.346457,28.346457 0 1 1 56.69291,0 z" />
    <path
       transform="translate(595.27559,407.4803)"
       sodipodi:type="arc"
       style="fill:#000000;fill-opacity:1;stroke:#000000;stroke-width:0.5;stroke-linecap:round;stroke-miterlimit:4;stroke-opacity:1;stroke-dasharray:none;stroke-dashoffset:0"
       id="path3049-0-7"
       sodipodi:cx="141.73228"
       sodipodi:cy="106.29921"
       sodipodi:rx="28.346457"
       sodipodi:ry="28.346457"
       d="m 170.07874,106.29921 a 28.346457,28.346457 0 1 1 -56.69291,0 28.346457,28.346457 0 1 1 56.69291,0 z" />
    <path
       transform="translate(680.31496,407.4803)"
       sodipodi:type="arc"
       style="fill:#000000;fill-opacity:1;stroke:#000000;stroke-width:0.5;stroke-linecap:round;stroke-miterlimit:4;stroke-opacity:1;stroke-dasharray:none;stroke-dashoffset:0"
       id="path3049-9-2"
       sodipodi:cx="141.73228"
       sodipodi:cy="106.29921"
       sodipodi:rx="28.346457"
       sodipodi:ry="28.346457"
       d="m 170.07874,106.29921 a 28.346457,28.346457 0 1 1 -56.69291,0 28.346457,28.346457 0 1 1 56.69291,0 z" />
    <path
       transform="translate(765.35433,407.4803)"
       sodipodi:type="arc"
       style="fill:#000000;fill-opacity:1;stroke:#000000;stroke-width:0.5;stroke-linecap:round;stroke-miterlimit:4;stroke-opacity:1;stroke-dasharray:none;stroke-dashoffset:0"
       id="path3049-7-2"
       sodipodi:cx="141.73228"
       sodipodi:cy="106.29921"
       sodipodi:rx="28.346457"
       sodipodi:ry="28.346457"
       d="m 170.07874,106.29921 a 28.346457,28.346457 0 1 1 -56.69291,0 28.346457,28.346457 0 1 1 56.69291,0 z" />
    <path
       transform="translate(7.3527658e-7,492.51967)"
       sodipodi:type="arc"
       style="fill:#000000;fill-opacity:1;stroke:#000000;stroke-width:0.5;stroke-linecap:round;stroke-miterlimit:4;stroke-opacity:1;stroke-dasharray:none;stroke-dashoffset:0"
       id="path3049-77"
       sodipodi:cx="141.73228"
       sodipodi:cy="106.29921"
       sodipodi:rx="28.346457"
       sodipodi:ry="28.346457"
       d="m 170.07874,106.29921 a 28.346457,28.346457 0 1 1 -56.69291,0 28.346457,28.346457 0 1 1 56.69291,0 z" />
    <path
       transform="translate(85.039375,492.51967)"
       sodipodi:type="arc"
       style="fill:#000000;fill-opacity:1;stroke:#000000;stroke-width:0.5;stroke-linecap:round;stroke-miterlimit:4;stroke-opacity:1;stroke-dasharray:none;stroke-dashoffset:0"
       id="path3049-1-8"
       sodipodi:cx="141.73228"
       sodipodi:cy="106.29921"
       sodipodi:rx="28.346457"
       sodipodi:ry="28.346457"
       d="m 170.07874,106.29921 a 28.346457,28.346457 0 1 1 -56.69291,0 28.346457,28.346457 0 1 1 56.69291,0 z" />
    <path
       transform="translate(170.07874,492.51967)"
       sodipodi:type="arc"
       style="fill:#000000;fill-opacity:1;stroke:#000000;stroke-width:0.5;stroke-linecap:round;stroke-miterlimit:4;stroke-opacity:1;stroke-dasharray:none;stroke-dashoffset:0"
       id="path3049-2-6"
       sodipodi:cx="141.73228"
       sodipodi:cy="106.29921"
       sodipodi:rx="28.346457"
       sodipodi:ry="28.346457"
       d="m 170.07874,106.29921 a 28.346457,28.346457 0 1 1 -56.69291,0 28.346457,28.346457 0 1 1 56.69291,0 z" />
    <path
       transform="translate(255.11811,492.51967)"
       sodipodi:type="arc"
       style="fill:#000000;fill-opacity:1;stroke:#000000;stroke-width:0.5;stroke-linecap:round;stroke-miterlimit:4;stroke-opacity:1;stroke-dasharray:none;stroke-dashoffset:0"
       id="path3049-5-3"
       sodipodi:cx="141.73228"
       sodipodi:cy="106.29921"
       sodipodi:rx="28.346457"
       sodipodi:ry="28.346457"
       d="m 170.07874,106.29921 a 28.346457,28.346457 0 1 1 -56.69291,0 28.346457,28.346457 0 1 1 56.69291,0 z" />
    <path
       transform="translate(340.15748,492.51967)"
       sodipodi:type="arc"
       style="fill:#000000;fill-opacity:1;stroke:#000000;stroke-width:0.5;stroke-linecap:round;stroke-miterlimit:4;stroke-opacity:1;stroke-dasharray:none;stroke-dashoffset:0"
       id="path3049-6-3"
       sodipodi:cx="141.73228"
       sodipodi:cy="106.29921"
       sodipodi:rx="28.346457"
       sodipodi:ry="28.346457"
       d="m 170.07874,106.29921 a 28.346457,28.346457 0 1 1 -56.69291,0 28.346457,28.346457 0 1 1 56.69291,0 z" />
    <path
       transform="translate(425.19685,492.51967)"
       sodipodi:type="arc"
       style="fill:#000000;fill-opacity:1;stroke:#000000;stroke-width:0.5;stroke-linecap:round;stroke-miterlimit:4;stroke-opacity:1;stroke-dasharray:none;stroke-dashoffset:0"
       id="path3049-27-4"
       sodipodi:cx="141.73228"
       sodipodi:cy="106.29921"
       sodipodi:rx="28.346457"
       sodipodi:ry="28.346457"
       d="m 170.07874,106.29921 a 28.346457,28.346457 0 1 1 -56.69291,0 28.346457,28.346457 0 1 1 56.69291,0 z" />
    <path
       transform="translate(510.23622,492.51967)"
       sodipodi:type="arc"
       style="fill:#000000;fill-opacity:1;stroke:#000000;stroke-width:0.5;stroke-linecap:round;stroke-miterlimit:4;stroke-opacity:1;stroke-dasharray:none;stroke-dashoffset:0"
       id="path3049-8-6"
       sodipodi:cx="141.73228"
       sodipodi:cy="106.29921"
       sodipodi:rx="28.346457"
       sodipodi:ry="28.346457"
       d="m 170.07874,106.29921 a 28.346457,28.346457 0 1 1 -56.69291,0 28.346457,28.346457 0 1 1 56.69291,0 z" />
    <path
       transform="translate(595.27559,492.51967)"
       sodipodi:type="arc"
       style="fill:#000000;fill-opacity:1;stroke:#000000;stroke-width:0.5;stroke-linecap:round;stroke-miterlimit:4;stroke-opacity:1;stroke-dasharray:none;stroke-dashoffset:0"
       id="path3049-0-0"
       sodipodi:cx="141.73228"
       sodipodi:cy="106.29921"
       sodipodi:rx="28.346457"
       sodipodi:ry="28.346457"
       d="m 170.07874,106.29921 a 28.346457,28.346457 0 1 1 -56.69291,0 28.346457,28.346457 0 1 1 56.69291,0 z" />
    <path
       transform="translate(680.31496,492.51967)"
       sodipodi:type="arc"
       style="fill:#000000;fill-opacity:1;stroke:#000000;stroke-width:0.5;stroke-linecap:round;stroke-miterlimit:4;stroke-opacity:1;stroke-dasharray:none;stroke-dashoffset:0"
       id="path3049-9-1"
       sodipodi:cx="141.73228"
       sodipodi:cy="106.29921"
       sodipodi:rx="28.346457"
       sodipodi:ry="28.346457"
       d="m 170.07874,106.29921 a 28.346457,28.346457 0 1 1 -56.69291,0 28.346457,28.346457 0 1 1 56.69291,0 z" />
    <path
       transform="translate(765.35433,492.51967)"
       sodipodi:type="arc"
       style="fill:#000000;fill-opacity:1;stroke:#000000;stroke-width:0.5;stroke-linecap:round;stroke-miterlimit:4;stroke-opacity:1;stroke-dasharray:none;stroke-dashoffset:0"
       id="path3049-7-20"
       sodipodi:cx="141.73228"
       sodipodi:cy="106.29921"
       sodipodi:rx="28.346457"
       sodipodi:ry="28.346457"
       d="m 170.07874,106.29921 a 28.346457,28.346457 0 1 1 -56.69291,0 28.346457,28.346457 0 1 1 56.69291,0 z" />
    <path
       transform="translate(7.3527658e-7,577.55904)"
       sodipodi:type="arc"
       style="fill:#000000;fill-opacity:1;stroke:#000000;stroke-width:0.5;stroke-linecap:round;stroke-miterlimit:4;stroke-opacity:1;stroke-dasharray:none;stroke-dashoffset:0"
       id="path3049-91"
       sodipodi:cx="141.73228"
       sodipodi:cy="106.29921"
       sodipodi:rx="28.346457"
       sodipodi:ry="28.346457"
       d="m 170.07874,106.29921 a 28.346457,28.346457 0 1 1 -56.69291,0 28.346457,28.346457 0 1 1 56.69291,0 z" />
    <path
       transform="translate(85.039375,577.55904)"
       sodipodi:type="arc"
       style="fill:#000000;fill-opacity:1;stroke:#000000;stroke-width:0.5;stroke-linecap:round;stroke-miterlimit:4;stroke-opacity:1;stroke-dasharray:none;stroke-dashoffset:0"
       id="path3049-1-4"
       sodipodi:cx="141.73228"
       sodipodi:cy="106.29921"
       sodipodi:rx="28.346457"
       sodipodi:ry="28.346457"
       d="m 170.07874,106.29921 a 28.346457,28.346457 0 1 1 -56.69291,0 28.346457,28.346457 0 1 1 56.69291,0 z" />
    <path
       transform="translate(170.07874,577.55904)"
       sodipodi:type="arc"
       style="fill:#000000;fill-opacity:1;stroke:#000000;stroke-width:0.5;stroke-linecap:round;stroke-miterlimit:4;stroke-opacity:1;stroke-dasharray:none;stroke-dashoffset:0"
       id="path3049-2-7"
       sodipodi:cx="141.73228"
       sodipodi:cy="106.29921"
       sodipodi:rx="28.346457"
       sodipodi:ry="28.346457"
       d="m 170.07874,106.29921 a 28.346457,28.346457 0 1 1 -56.69291,0 28.346457,28.346457 0 1 1 56.69291,0 z" />
    <path
       transform="translate(255.11811,577.55904)"
       sodipodi:type="arc"
       style="fill:#000000;fill-opacity:1;stroke:#000000;stroke-width:0.5;stroke-linecap:round;stroke-miterlimit:4;stroke-opacity:1;stroke-dasharray:none;stroke-dashoffset:0"
       id="path3049-5-1"
       sodipodi:cx="141.73228"
       sodipodi:cy="106.29921"
       sodipodi:rx="28.346457"
       sodipodi:ry="28.346457"
       d="m 170.07874,106.29921 a 28.346457,28.346457 0 1 1 -56.69291,0 28.346457,28.346457 0 1 1 56.69291,0 z" />
    <path
       transform="translate(340.15748,577.55904)"
       sodipodi:type="arc"
       style="fill:#000000;fill-opacity:1;stroke:#000000;stroke-width:0.5;stroke-linecap:round;stroke-miterlimit:4;stroke-opacity:1;stroke-dasharray:none;stroke-dashoffset:0"
       id="path3049-6-98"
       sodipodi:cx="141.73228"
       sodipodi:cy="106.29921"
       sodipodi:rx="28.346457"
       sodipodi:ry="28.346457"
       d="m 170.07874,106.29921 a 28.346457,28.346457 0 1 1 -56.69291,0 28.346457,28.346457 0 1 1 56.69291,0 z" />
    <path
       transform="translate(425.19685,577.55904)"
       sodipodi:type="arc"
       style="fill:#000000;fill-opacity:1;stroke:#000000;stroke-width:0.5;stroke-linecap:round;stroke-miterlimit:4;stroke-opacity:1;stroke-dasharray:none;stroke-dashoffset:0"
       id="path3049-27-9"
       sodipodi:cx="141.73228"
       sodipodi:cy="106.29921"
       sodipodi:rx="28.346457"
       sodipodi:ry="28.346457"
       d="m 170.07874,106.29921 a 28.346457,28.346457 0 1 1 -56.69291,0 28.346457,28.346457 0 1 1 56.69291,0 z" />
    <path
       transform="translate(510.23622,577.55904)"
       sodipodi:type="arc"
       style="fill:#000000;fill-opacity:1;stroke:#000000;stroke-width:0.5;stroke-linecap:round;stroke-miterlimit:4;stroke-opacity:1;stroke-dasharray:none;stroke-dashoffset:0"
       id="path3049-8-15"
       sodipodi:cx="141.73228"
       sodipodi:cy="106.29921"
       sodipodi:rx="28.346457"
       sodipodi:ry="28.346457"
       d="m 170.07874,106.29921 a 28.346457,28.346457 0 1 1 -56.69291,0 28.346457,28.346457 0 1 1 56.69291,0 z" />
    <path
       transform="translate(595.27559,577.55904)"
       sodipodi:type="arc"
       style="fill:#000000;fill-opacity:1;stroke:#000000;stroke-width:0.5;stroke-linecap:round;stroke-miterlimit:4;stroke-opacity:1;stroke-dasharray:none;stroke-dashoffset:0"
       id="path3049-0-1"
       sodipodi:cx="141.73228"
       sodipodi:cy="106.29921"
       sodipodi:rx="28.346457"
       sodipodi:ry="28.346457"
       d="m 170.07874,106.29921 a 28.346457,28.346457 0 1 1 -56.69291,0 28.346457,28.346457 0 1 1 56.69291,0 z" />
    <path
       transform="translate(680.31496,577.55904)"
       sodipodi:type="arc"
       style="fill:#000000;fill-opacity:1;stroke:#000000;stroke-width:0.5;stroke-linecap:round;stroke-miterlimit:4;stroke-opacity:1;stroke-dasharray:none;stroke-dashoffset:0"
       id="path3049-9-3"
       sodipodi:cx="141.73228"
       sodipodi:cy="106.29921"
       sodipodi:rx="28.346457"
       sodipodi:ry="28.346457"
       d="m 170.07874,106.29921 a 28.346457,28.346457 0 1 1 -56.69291,0 28.346457,28.346457 0 1 1 56.69291,0 z" />
    <path
       transform="translate(765.35433,577.55904)"
       sodipodi:type="arc"
       style="fill:#000000;fill-opacity:1;stroke:#000000;stroke-width:0.5;stroke-linecap:round;stroke-miterlimit:4;stroke-opacity:1;stroke-dasharray:none;stroke-dashoffset:0"
       id="path3049-7-29"
       sodipodi:cx="141.73228"
       sodipodi:cy="106.29921"
       sodipodi:rx="28.346457"
       sodipodi:ry="28.346457"
       d="m 170.07874,106.29921 a 28.346457,28.346457 0 1 1 -56.69291,0 28.346457,28.346457 0 1 1 56.69291,0 z" />
    <path
       transform="translate(7.3527658e-7,662.59841)"
       sodipodi:type="arc"
       style="fill:#000000;fill-opacity:1;stroke:#000000;stroke-width:0.5;stroke-linecap:round;stroke-miterlimit:4;stroke-opacity:1;stroke-dasharray:none;stroke-dashoffset:0"
       id="path3049-98"
       sodipodi:cx="141.73228"
       sodipodi:cy="106.29921"
       sodipodi:rx="28.346457"
       sodipodi:ry="28.346457"
       d="m 170.07874,106.29921 a 28.346457,28.346457 0 1 1 -56.69291,0 28.346457,28.346457 0 1 1 56.69291,0 z" />
    <path
       transform="translate(85.039375,662.59841)"
       sodipodi:type="arc"
       style="fill:#000000;fill-opacity:1;stroke:#000000;stroke-width:0.5;stroke-linecap:round;stroke-miterlimit:4;stroke-opacity:1;stroke-dasharray:none;stroke-dashoffset:0"
       id="path3049-1-9"
       sodipodi:cx="141.73228"
       sodipodi:cy="106.29921"
       sodipodi:rx="28.346457"
       sodipodi:ry="28.346457"
       d="m 170.07874,106.29921 a 28.346457,28.346457 0 1 1 -56.69291,0 28.346457,28.346457 0 1 1 56.69291,0 z" />
    <path
       transform="translate(170.07874,662.59841)"
       sodipodi:type="arc"
       style="fill:#000000;fill-opacity:1;stroke:#000000;stroke-width:0.5;stroke-linecap:round;stroke-miterlimit:4;stroke-opacity:1;stroke-dasharray:none;stroke-dashoffset:0"
       id="path3049-2-5"
       sodipodi:cx="141.73228"
       sodipodi:cy="106.29921"
       sodipodi:rx="28.346457"
       sodipodi:ry="28.346457"
       d="m 170.07874,106.29921 a 28.346457,28.346457 0 1 1 -56.69291,0 28.346457,28.346457 0 1 1 56.69291,0 z" />
    <path
       transform="translate(255.11811,662.59841)"
       sodipodi:type="arc"
       style="fill:#000000;fill-opacity:1;stroke:#000000;stroke-width:0.5;stroke-linecap:round;stroke-miterlimit:4;stroke-opacity:1;stroke-dasharray:none;stroke-dashoffset:0"
       id="path3049-5-35"
       sodipodi:cx="141.73228"
       sodipodi:cy="106.29921"
       sodipodi:rx="28.346457"
       sodipodi:ry="28.346457"
       d="m 170.07874,106.29921 a 28.346457,28.346457 0 1 1 -56.69291,0 28.346457,28.346457 0 1 1 56.69291,0 z" />
    <path
       transform="translate(340.15748,662.59841)"
       sodipodi:type="arc"
       style="fill:#000000;fill-opacity:1;stroke:#000000;stroke-width:0.5;stroke-linecap:round;stroke-miterlimit:4;stroke-opacity:1;stroke-dasharray:none;stroke-dashoffset:0"
       id="path3049-6-1"
       sodipodi:cx="141.73228"
       sodipodi:cy="106.29921"
       sodipodi:rx="28.346457"
       sodipodi:ry="28.346457"
       d="m 170.07874,106.29921 a 28.346457,28.346457 0 1 1 -56.69291,0 28.346457,28.346457 0 1 1 56.69291,0 z" />
    <path
       transform="translate(425.19685,662.59841)"
       sodipodi:type="arc"
       style="fill:#000000;fill-opacity:1;stroke:#000000;stroke-width:0.5;stroke-linecap:round;stroke-miterlimit:4;stroke-opacity:1;stroke-dasharray:none;stroke-dashoffset:0"
       id="path3049-27-48"
       sodipodi:cx="141.73228"
       sodipodi:cy="106.29921"
       sodipodi:rx="28.346457"
       sodipodi:ry="28.346457"
       d="m 170.07874,106.29921 a 28.346457,28.346457 0 1 1 -56.69291,0 28.346457,28.346457 0 1 1 56.69291,0 z" />
    <path
       transform="translate(510.23622,662.59841)"
       sodipodi:type="arc"
       style="fill:#000000;fill-opacity:1;stroke:#000000;stroke-width:0.5;stroke-linecap:round;stroke-miterlimit:4;stroke-opacity:1;stroke-dasharray:none;stroke-dashoffset:0"
       id="path3049-8-4"
       sodipodi:cx="141.73228"
       sodipodi:cy="106.29921"
       sodipodi:rx="28.346457"
       sodipodi:ry="28.346457"
       d="m 170.07874,106.29921 a 28.346457,28.346457 0 1 1 -56.69291,0 28.346457,28.346457 0 1 1 56.69291,0 z" />
    <path
       transform="translate(595.27559,662.59841)"
       sodipodi:type="arc"
       style="fill:#000000;fill-opacity:1;stroke:#000000;stroke-width:0.5;stroke-linecap:round;stroke-miterlimit:4;stroke-opacity:1;stroke-dasharray:none;stroke-dashoffset:0"
       id="path3049-0-4"
       sodipodi:cx="141.73228"
       sodipodi:cy="106.29921"
       sodipodi:rx="28.346457"
       sodipodi:ry="28.346457"
       d="m 170.07874,106.29921 a 28.346457,28.346457 0 1 1 -56.69291,0 28.346457,28.346457 0 1 1 56.69291,0 z" />
    <path
       transform="translate(680.31496,662.59841)"
       sodipodi:type="arc"
       style="fill:#000000;fill-opacity:1;stroke:#000000;stroke-width:0.5;stroke-linecap:round;stroke-miterlimit:4;stroke-opacity:1;stroke-dasharray:none;stroke-dashoffset:0"
       id="path3049-9-5"
       sodipodi:cx="141.73228"
       sodipodi:cy="106.29921"
       sodipodi:rx="28.346457"
       sodipodi:ry="28.346457"
       d="m 170.07874,106.29921 a 28.346457,28.346457 0 1 1 -56.69291,0 28.346457,28.346457 0 1 1 56.69291,0 z" />
    <path
       transform="translate(765.35433,662.59841)"
       sodipodi:type="arc"
       style="fill:#000000;fill-opacity:1;stroke:#000000;stroke-width:0.5;stroke-linecap:round;stroke-miterlimit:4;stroke-opacity:1;stroke-dasharray:none;stroke-dashoffset:0"
       id="path3049-7-8"
       sodipodi:cx="141.73228"
       sodipodi:cy="106.29921"
       sodipodi:rx="28.346457"
       sodipodi:ry="28.346457"
       d="m 170.07874,106.29921 a 28.346457,28.346457 0 1 1 -56.69291,0 28.346457,28.346457 0 1 1 56.69291,0 z" />
    <path
       transform="translate(7.3527658e-7,747.63778)"
       sodipodi:type="arc"
       style="fill:#000000;fill-opacity:1;stroke:#000000;stroke-width:0.5;stroke-linecap:round;stroke-miterlimit:4;stroke-opacity:1;stroke-dasharray:none;stroke-dashoffset:0"
       id="path3049-57"
       sodipodi:cx="141.73228"
       sodipodi:cy="106.29921"
       sodipodi:rx="28.346457"
       sodipodi:ry="28.346457"
       d="m 170.07874,106.29921 a 28.346457,28.346457 0 1 1 -56.69291,0 28.346457,28.346457 0 1 1 56.69291,0 z" />
    <path
       transform="translate(85.039375,747.63778)"
       sodipodi:type="arc"
       style="fill:#000000;fill-opacity:1;stroke:#000000;stroke-width:0.5;stroke-linecap:round;stroke-miterlimit:4;stroke-opacity:1;stroke-dasharray:none;stroke-dashoffset:0"
       id="path3049-1-46"
       sodipodi:cx="141.73228"
       sodipodi:cy="106.29921"
       sodipodi:rx="28.346457"
       sodipodi:ry="28.346457"
       d="m 170.07874,106.29921 a 28.346457,28.346457 0 1 1 -56.69291,0 28.346457,28.346457 0 1 1 56.69291,0 z" />
    <path
       transform="translate(170.07874,747.63778)"
       sodipodi:type="arc"
       style="fill:#000000;fill-opacity:1;stroke:#000000;stroke-width:0.5;stroke-linecap:round;stroke-miterlimit:4;stroke-opacity:1;stroke-dasharray:none;stroke-dashoffset:0"
       id="path3049-2-1"
       sodipodi:cx="141.73228"
       sodipodi:cy="106.29921"
       sodipodi:rx="28.346457"
       sodipodi:ry="28.346457"
       d="m 170.07874,106.29921 a 28.346457,28.346457 0 1 1 -56.69291,0 28.346457,28.346457 0 1 1 56.69291,0 z" />
    <path
       transform="translate(255.11811,747.63778)"
       sodipodi:type="arc"
       style="fill:#000000;fill-opacity:1;stroke:#000000;stroke-width:0.5;stroke-linecap:round;stroke-miterlimit:4;stroke-opacity:1;stroke-dasharray:none;stroke-dashoffset:0"
       id="path3049-5-30"
       sodipodi:cx="141.73228"
       sodipodi:cy="106.29921"
       sodipodi:rx="28.346457"
       sodipodi:ry="28.346457"
       d="m 170.07874,106.29921 a 28.346457,28.346457 0 1 1 -56.69291,0 28.346457,28.346457 0 1 1 56.69291,0 z" />
    <path
       transform="translate(340.15748,747.63778)"
       sodipodi:type="arc"
       style="fill:#000000;fill-opacity:1;stroke:#000000;stroke-width:0.5;stroke-linecap:round;stroke-miterlimit:4;stroke-opacity:1;stroke-dasharray:none;stroke-dashoffset:0"
       id="path3049-6-11"
       sodipodi:cx="141.73228"
       sodipodi:cy="106.29921"
       sodipodi:rx="28.346457"
       sodipodi:ry="28.346457"
       d="m 170.07874,106.29921 a 28.346457,28.346457 0 1 1 -56.69291,0 28.346457,28.346457 0 1 1 56.69291,0 z" />
    <path
       transform="translate(425.19685,747.63778)"
       sodipodi:type="arc"
       style="fill:#000000;fill-opacity:1;stroke:#000000;stroke-width:0.5;stroke-linecap:round;stroke-miterlimit:4;stroke-opacity:1;stroke-dasharray:none;stroke-dashoffset:0"
       id="path3049-27-94"
       sodipodi:cx="141.73228"
       sodipodi:cy="106.29921"
       sodipodi:rx="28.346457"
       sodipodi:ry="28.346457"
       d="m 170.07874,106.29921 a 28.346457,28.346457 0 1 1 -56.69291,0 28.346457,28.346457 0 1 1 56.69291,0 z" />
    <path
       transform="translate(510.23622,747.63778)"
       sodipodi:type="arc"
       style="fill:#000000;fill-opacity:1;stroke:#000000;stroke-width:0.5;stroke-linecap:round;stroke-miterlimit:4;stroke-opacity:1;stroke-dasharray:none;stroke-dashoffset:0"
       id="path3049-8-7"
       sodipodi:cx="141.73228"
       sodipodi:cy="106.29921"
       sodipodi:rx="28.346457"
       sodipodi:ry="28.346457"
       d="m 170.07874,106.29921 a 28.346457,28.346457 0 1 1 -56.69291,0 28.346457,28.346457 0 1 1 56.69291,0 z" />
    <path
       transform="translate(595.27559,747.63778)"
       sodipodi:type="arc"
       style="fill:#000000;fill-opacity:1;stroke:#000000;stroke-width:0.5;stroke-linecap:round;stroke-miterlimit:4;stroke-opacity:1;stroke-dasharray:none;stroke-dashoffset:0"
       id="path3049-0-3"
       sodipodi:cx="141.73228"
       sodipodi:cy="106.29921"
       sodipodi:rx="28.346457"
       sodipodi:ry="28.346457"
       d="m 170.07874,106.29921 a 28.346457,28.346457 0 1 1 -56.69291,0 28.346457,28.346457 0 1 1 56.69291,0 z" />
    <path
       transform="translate(680.31496,747.63778)"
       sodipodi:type="arc"
       style="fill:#000000;fill-opacity:1;stroke:#000000;stroke-width:0.5;stroke-linecap:round;stroke-miterlimit:4;stroke-opacity:1;stroke-dasharray:none;stroke-dashoffset:0"
       id="path3049-9-9"
       sodipodi:cx="141.73228"
       sodipodi:cy="106.29921"
       sodipodi:rx="28.346457"
       sodipodi:ry="28.346457"
       d="m 170.07874,106.29921 a 28.346457,28.346457 0 1 1 -56.69291,0 28.346457,28.346457 0 1 1 56.69291,0 z" />
    <path
       transform="translate(765.35433,747.63778)"
       sodipodi:type="arc"
       style="fill:#000000;fill-opacity:1;stroke:#000000;stroke-width:0.5;stroke-linecap:round;stroke-miterlimit:4;stroke-opacity:1;stroke-dasharray:none;stroke-dashoffset:0"
       id="path3049-7-1"
       sodipodi:cx="141.73228"
       sodipodi:cy="106.29921"
       sodipodi:rx="28.346457"
       sodipodi:ry="28.346457"
       d="m 170.07874,106.29921 a 28.346457,28.346457 0 1 1 -56.69291,0 28.346457,28.346457 0 1 1 56.69291,0 z" />
    <path
       transform="translate(7.3527658e-7,832.67715)"
       sodipodi:type="arc"
       style="fill:#000000;fill-opacity:1;stroke:#000000;stroke-width:0.5;stroke-linecap:round;stroke-miterlimit:4;stroke-opacity:1;stroke-dasharray:none;stroke-dashoffset:0"
       id="path3049-12"
       sodipodi:cx="141.73228"
       sodipodi:cy="106.29921"
       sodipodi:rx="28.346457"
       sodipodi:ry="28.346457"
       d="m 170.07874,106.29921 a 28.346457,28.346457 0 1 1 -56.69291,0 28.346457,28.346457 0 1 1 56.69291,0 z" />
    <path
       transform="translate(85.039375,832.67715)"
       sodipodi:type="arc"
       style="fill:#000000;fill-opacity:1;stroke:#000000;stroke-width:0.5;stroke-linecap:round;stroke-miterlimit:4;stroke-opacity:1;stroke-dasharray:none;stroke-dashoffset:0"
       id="path3049-1-2"
       sodipodi:cx="141.73228"
       sodipodi:cy="106.29921"
       sodipodi:rx="28.346457"
       sodipodi:ry="28.346457"
       d="m 170.07874,106.29921 a 28.346457,28.346457 0 1 1 -56.69291,0 28.346457,28.346457 0 1 1 56.69291,0 z" />
    <path
       transform="translate(170.07874,832.67715)"
       sodipodi:type="arc"
       style="fill:#000000;fill-opacity:1;stroke:#000000;stroke-width:0.5;stroke-linecap:round;stroke-miterlimit:4;stroke-opacity:1;stroke-dasharray:none;stroke-dashoffset:0"
       id="path3049-2-2"
       sodipodi:cx="141.73228"
       sodipodi:cy="106.29921"
       sodipodi:rx="28.346457"
       sodipodi:ry="28.346457"
       d="m 170.07874,106.29921 a 28.346457,28.346457 0 1 1 -56.69291,0 28.346457,28.346457 0 1 1 56.69291,0 z" />
    <path
       transform="translate(255.11811,832.67715)"
       sodipodi:type="arc"
       style="fill:#000000;fill-opacity:1;stroke:#000000;stroke-width:0.5;stroke-linecap:round;stroke-miterlimit:4;stroke-opacity:1;stroke-dasharray:none;stroke-dashoffset:0"
       id="path3049-5-7"
       sodipodi:cx="141.73228"
       sodipodi:cy="106.29921"
       sodipodi:rx="28.346457"
       sodipodi:ry="28.346457"
       d="m 170.07874,106.29921 a 28.346457,28.346457 0 1 1 -56.69291,0 28.346457,28.346457 0 1 1 56.69291,0 z" />
    <path
       transform="translate(340.15748,832.67715)"
       sodipodi:type="arc"
       style="fill:#000000;fill-opacity:1;stroke:#000000;stroke-width:0.5;stroke-linecap:round;stroke-miterlimit:4;stroke-opacity:1;stroke-dasharray:none;stroke-dashoffset:0"
       id="path3049-6-8"
       sodipodi:cx="141.73228"
       sodipodi:cy="106.29921"
       sodipodi:rx="28.346457"
       sodipodi:ry="28.346457"
       d="m 170.07874,106.29921 a 28.346457,28.346457 0 1 1 -56.69291,0 28.346457,28.346457 0 1 1 56.69291,0 z" />
    <path
       transform="translate(425.19685,832.67715)"
       sodipodi:type="arc"
       style="fill:#000000;fill-opacity:1;stroke:#000000;stroke-width:0.5;stroke-linecap:round;stroke-miterlimit:4;stroke-opacity:1;stroke-dasharray:none;stroke-dashoffset:0"
       id="path3049-27-99"
       sodipodi:cx="141.73228"
       sodipodi:cy="106.29921"
       sodipodi:rx="28.346457"
       sodipodi:ry="28.346457"
       d="m 170.07874,106.29921 a 28.346457,28.346457 0 1 1 -56.69291,0 28.346457,28.346457 0 1 1 56.69291,0 z" />
    <path
       transform="translate(510.23622,832.67715)"
       sodipodi:type="arc"
       style="fill:#000000;fill-opacity:1;stroke:#000000;stroke-width:0.5;stroke-linecap:round;stroke-miterlimit:4;stroke-opacity:1;stroke-dasharray:none;stroke-dashoffset:0"
       id="path3049-8-2"
       sodipodi:cx="141.73228"
       sodipodi:cy="106.29921"
       sodipodi:rx="28.346457"
       sodipodi:ry="28.346457"
       d="m 170.07874,106.29921 a 28.346457,28.346457 0 1 1 -56.69291,0 28.346457,28.346457 0 1 1 56.69291,0 z" />
    <path
       transform="translate(595.27559,832.67715)"
       sodipodi:type="arc"
       style="fill:#000000;fill-opacity:1;stroke:#000000;stroke-width:0.5;stroke-linecap:round;stroke-miterlimit:4;stroke-opacity:1;stroke-dasharray:none;stroke-dashoffset:0"
       id="path3049-0-8"
       sodipodi:cx="141.73228"
       sodipodi:cy="106.29921"
       sodipodi:rx="28.346457"
       sodipodi:ry="28.346457"
       d="m 170.07874,106.29921 a 28.346457,28.346457 0 1 1 -56.69291,0 28.346457,28.346457 0 1 1 56.69291,0 z" />
    <path
       transform="translate(680.31496,832.67715)"
       sodipodi:type="arc"
       style="fill:#000000;fill-opacity:1;stroke:#000000;stroke-width:0.5;stroke-linecap:round;stroke-miterlimit:4;stroke-opacity:1;stroke-dasharray:none;stroke-dashoffset:0"
       id="path3049-9-38"
       sodipodi:cx="141.73228"
       sodipodi:cy="106.29921"
       sodipodi:rx="28.346457"
       sodipodi:ry="28.346457"
       d="m 170.07874,106.29921 a 28.346457,28.346457 0 1 1 -56.69291,0 28.346457,28.346457 0 1 1 56.69291,0 z" />
    <path
       transform="translate(765.35433,832.67715)"
       sodipodi:type="arc"
       style="fill:#000000;fill-opacity:1;stroke:#000000;stroke-width:0.5;stroke-linecap:round;stroke-miterlimit:4;stroke-opacity:1;stroke-dasharray:none;stroke-dashoffset:0"
       id="path3049-7-3"
       sodipodi:cx="141.73228"
       sodipodi:cy="106.29921"
       sodipodi:rx="28.346457"
       sodipodi:ry="28.346457"
       d="m 170.07874,106.29921 a 28.346457,28.346457 0 1 1 -56.69291,0 28.346457,28.346457 0 1 1 56.69291,0 z" />
  </g>
</svg>
