<?xml version="1.0" encoding="UTF-8" standalone="no"?>
<!-- Created with Inkscape (http://www.inkscape.org/) -->

<svg
   xmlns:dc="http://purl.org/dc/elements/1.1/"
   xmlns:cc="http://creativecommons.org/ns#"
   xmlns:rdf="http://www.w3.org/1999/02/22-rdf-syntax-ns#"
   xmlns:svg="http://www.w3.org/2000/svg"
   xmlns="http://www.w3.org/2000/svg"
   xmlns:sodipodi="http://sodipodi.sourceforge.net/DTD/sodipodi-0.dtd"
   xmlns:inkscape="http://www.inkscape.org/namespaces/inkscape"
   width="1052.3622"
   height="744.09448"
   id="svg2"
   version="1.1"
   inkscape:version="0.48.3.1 r9886"
   sodipodi:docname="New document 1">
  <defs
     id="defs4" />
  <sodipodi:namedview
     id="base"
     pagecolor="#ffffff"
     bordercolor="#666666"
     borderopacity="1.0"
     inkscape:pageopacity="0.0"
     inkscape:pageshadow="2"
     inkscape:zoom="1.4"
     inkscape:cx="526.18109"
     inkscape:cy="212.86064"
     inkscape:document-units="px"
     inkscape:current-layer="layer1"
     showgrid="true"
     inkscape:window-width="1680"
     inkscape:window-height="921"
     inkscape:window-x="0"
     inkscape:window-y="50"
     inkscape:window-maximized="1">
    <inkscape:grid
       type="xygrid"
       id="grid2985"
       empspacing="5"
       visible="true"
       enabled="true"
       snapvisiblegridlinesonly="false"
       units="mm"
       spacingx="5mm"
       spacingy="5mm" />
  </sodipodi:namedview>
  <metadata
     id="metadata7">
    <rdf:RDF>
      <cc:Work
         rdf:about="">
        <dc:format>image/svg+xml</dc:format>
        <dc:type
           rdf:resource="http://purl.org/dc/dcmitype/StillImage" />
        <dc:title></dc:title>
      </cc:Work>
    </rdf:RDF>
  </metadata>
  <g
     inkscape:label="Layer 1"
     inkscape:groupmode="layer"
     id="layer1"
     transform="translate(0,-308.2677)">
    <path
       transform="translate(-17.716541,308.2677)"
       sodipodi:type="arc"
       style="fill:#000000;fill-opacity:1;stroke:#000000;stroke-width:0.5;stroke-linecap:round;stroke-miterlimit:4;stroke-opacity:1;stroke-dasharray:none;stroke-dashoffset:0"
       id="path2993"
       sodipodi:cx="177.16536"
       sodipodi:cy="124.01574"
       sodipodi:rx="35.433071"
       sodipodi:ry="35.433071"
       d="m 212.59843,124.01574 a 35.433071,35.433071 0 1 1 -70.86614,0 35.433071,35.433071 0 1 1 70.86614,0 z" />
    <path
       transform="translate(88.582668,308.2677)"
       sodipodi:type="arc"
       style="fill:#000000;fill-opacity:1;stroke:#000000;stroke-width:0.5;stroke-linecap:round;stroke-miterlimit:4;stroke-opacity:1;stroke-dasharray:none;stroke-dashoffset:0"
       id="path2993-3"
       sodipodi:cx="177.16536"
       sodipodi:cy="124.01574"
       sodipodi:rx="35.433071"
       sodipodi:ry="35.433071"
       d="m 212.59843,124.01574 a 35.433071,35.433071 0 1 1 -70.86614,0 35.433071,35.433071 0 1 1 70.86614,0 z" />
    <path
       transform="translate(194.88189,308.2677)"
       sodipodi:type="arc"
       style="fill:#000000;fill-opacity:1;stroke:#000000;stroke-width:0.5;stroke-linecap:round;stroke-miterlimit:4;stroke-opacity:1;stroke-dasharray:none;stroke-dashoffset:0"
       id="path2993-36"
       sodipodi:cx="177.16536"
       sodipodi:cy="124.01574"
       sodipodi:rx="35.433071"
       sodipodi:ry="35.433071"
       d="m 212.59843,124.01574 a 35.433071,35.433071 0 1 1 -70.86614,0 35.433071,35.433071 0 1 1 70.86614,0 z" />
    <path
       transform="translate(301.1811,308.2677)"
       sodipodi:type="arc"
       style="fill:#000000;fill-opacity:1;stroke:#000000;stroke-width:0.5;stroke-linecap:round;stroke-miterlimit:4;stroke-opacity:1;stroke-dasharray:none;stroke-dashoffset:0"
       id="path2993-1"
       sodipodi:cx="177.16536"
       sodipodi:cy="124.01574"
       sodipodi:rx="35.433071"
       sodipodi:ry="35.433071"
       d="m 212.59843,124.01574 a 35.433071,35.433071 0 1 1 -70.86614,0 35.433071,35.433071 0 1 1 70.86614,0 z" />
    <path
       transform="translate(407.48031,308.2677)"
       sodipodi:type="arc"
       style="fill:#000000;fill-opacity:1;stroke:#000000;stroke-width:0.5;stroke-linecap:round;stroke-miterlimit:4;stroke-opacity:1;stroke-dasharray:none;stroke-dashoffset:0"
       id="path2993-0"
       sodipodi:cx="177.16536"
       sodipodi:cy="124.01574"
       sodipodi:rx="35.433071"
       sodipodi:ry="35.433071"
       d="m 212.59843,124.01574 a 35.433071,35.433071 0 1 1 -70.86614,0 35.433071,35.433071 0 1 1 70.86614,0 z" />
    <path
       transform="translate(513.77952,308.2677)"
       sodipodi:type="arc"
       style="fill:#000000;fill-opacity:1;stroke:#000000;stroke-width:0.5;stroke-linecap:round;stroke-miterlimit:4;stroke-opacity:1;stroke-dasharray:none;stroke-dashoffset:0"
       id="path2993-31"
       sodipodi:cx="177.16536"
       sodipodi:cy="124.01574"
       sodipodi:rx="35.433071"
       sodipodi:ry="35.433071"
       d="m 212.59843,124.01574 a 35.433071,35.433071 0 1 1 -70.86614,0 35.433071,35.433071 0 1 1 70.86614,0 z" />
    <path
       transform="translate(620.07874,308.2677)"
       sodipodi:type="arc"
       style="fill:#000000;fill-opacity:1;stroke:#000000;stroke-width:0.5;stroke-linecap:round;stroke-miterlimit:4;stroke-opacity:1;stroke-dasharray:none;stroke-dashoffset:0"
       id="path2993-7"
       sodipodi:cx="177.16536"
       sodipodi:cy="124.01574"
       sodipodi:rx="35.433071"
       sodipodi:ry="35.433071"
       d="m 212.59843,124.01574 a 35.433071,35.433071 0 1 1 -70.86614,0 35.433071,35.433071 0 1 1 70.86614,0 z" />
    <path
       transform="translate(726.37795,308.2677)"
       sodipodi:type="arc"
       style="fill:#000000;fill-opacity:1;stroke:#000000;stroke-width:0.5;stroke-linecap:round;stroke-miterlimit:4;stroke-opacity:1;stroke-dasharray:none;stroke-dashoffset:0"
       id="path2993-2"
       sodipodi:cx="177.16536"
       sodipodi:cy="124.01574"
       sodipodi:rx="35.433071"
       sodipodi:ry="35.433071"
       d="m 212.59843,124.01574 a 35.433071,35.433071 0 1 1 -70.86614,0 35.433071,35.433071 0 1 1 70.86614,0 z" />
    <path
       transform="translate(-17.716538,414.56692)"
       sodipodi:type="arc"
       style="fill:#000000;fill-opacity:1;stroke:#000000;stroke-width:0.5;stroke-linecap:round;stroke-miterlimit:4;stroke-opacity:1;stroke-dasharray:none;stroke-dashoffset:0"
       id="path2993-8"
       sodipodi:cx="177.16536"
       sodipodi:cy="124.01574"
       sodipodi:rx="35.433071"
       sodipodi:ry="35.433071"
       d="m 212.59843,124.01574 a 35.433071,35.433071 0 1 1 -70.86614,0 35.433071,35.433071 0 1 1 70.86614,0 z" />
    <path
       transform="translate(88.582673,414.56692)"
       sodipodi:type="arc"
       style="fill:#000000;fill-opacity:1;stroke:#000000;stroke-width:0.5;stroke-linecap:round;stroke-miterlimit:4;stroke-opacity:1;stroke-dasharray:none;stroke-dashoffset:0"
       id="path2993-3-5"
       sodipodi:cx="177.16536"
       sodipodi:cy="124.01574"
       sodipodi:rx="35.433071"
       sodipodi:ry="35.433071"
       d="m 212.59843,124.01574 a 35.433071,35.433071 0 1 1 -70.86614,0 35.433071,35.433071 0 1 1 70.86614,0 z" />
    <path
       transform="translate(194.88189,414.56692)"
       sodipodi:type="arc"
       style="fill:#000000;fill-opacity:1;stroke:#000000;stroke-width:0.5;stroke-linecap:round;stroke-miterlimit:4;stroke-opacity:1;stroke-dasharray:none;stroke-dashoffset:0"
       id="path2993-36-8"
       sodipodi:cx="177.16536"
       sodipodi:cy="124.01574"
       sodipodi:rx="35.433071"
       sodipodi:ry="35.433071"
       d="m 212.59843,124.01574 a 35.433071,35.433071 0 1 1 -70.86614,0 35.433071,35.433071 0 1 1 70.86614,0 z" />
    <path
       transform="translate(301.1811,414.56692)"
       sodipodi:type="arc"
       style="fill:#000000;fill-opacity:1;stroke:#000000;stroke-width:0.5;stroke-linecap:round;stroke-miterlimit:4;stroke-opacity:1;stroke-dasharray:none;stroke-dashoffset:0"
       id="path2993-1-5"
       sodipodi:cx="177.16536"
       sodipodi:cy="124.01574"
       sodipodi:rx="35.433071"
       sodipodi:ry="35.433071"
       d="m 212.59843,124.01574 a 35.433071,35.433071 0 1 1 -70.86614,0 35.433071,35.433071 0 1 1 70.86614,0 z" />
    <path
       transform="translate(407.48031,414.56692)"
       sodipodi:type="arc"
       style="fill:#000000;fill-opacity:1;stroke:#000000;stroke-width:0.5;stroke-linecap:round;stroke-miterlimit:4;stroke-opacity:1;stroke-dasharray:none;stroke-dashoffset:0"
       id="path2993-0-3"
       sodipodi:cx="177.16536"
       sodipodi:cy="124.01574"
       sodipodi:rx="35.433071"
       sodipodi:ry="35.433071"
       d="m 212.59843,124.01574 a 35.433071,35.433071 0 1 1 -70.86614,0 35.433071,35.433071 0 1 1 70.86614,0 z" />
    <path
       transform="translate(513.77952,414.56692)"
       sodipodi:type="arc"
       style="fill:#000000;fill-opacity:1;stroke:#000000;stroke-width:0.5;stroke-linecap:round;stroke-miterlimit:4;stroke-opacity:1;stroke-dasharray:none;stroke-dashoffset:0"
       id="path2993-31-0"
       sodipodi:cx="177.16536"
       sodipodi:cy="124.01574"
       sodipodi:rx="35.433071"
       sodipodi:ry="35.433071"
       d="m 212.59843,124.01574 a 35.433071,35.433071 0 1 1 -70.86614,0 35.433071,35.433071 0 1 1 70.86614,0 z" />
    <path
       transform="translate(620.07874,414.56692)"
       sodipodi:type="arc"
       style="fill:#000000;fill-opacity:1;stroke:#000000;stroke-width:0.5;stroke-linecap:round;stroke-miterlimit:4;stroke-opacity:1;stroke-dasharray:none;stroke-dashoffset:0"
       id="path2993-7-5"
       sodipodi:cx="177.16536"
       sodipodi:cy="124.01574"
       sodipodi:rx="35.433071"
       sodipodi:ry="35.433071"
       d="m 212.59843,124.01574 a 35.433071,35.433071 0 1 1 -70.86614,0 35.433071,35.433071 0 1 1 70.86614,0 z" />
    <path
       transform="translate(726.37795,414.56692)"
       sodipodi:type="arc"
       style="fill:#000000;fill-opacity:1;stroke:#000000;stroke-width:0.5;stroke-linecap:round;stroke-miterlimit:4;stroke-opacity:1;stroke-dasharray:none;stroke-dashoffset:0"
       id="path2993-2-0"
       sodipodi:cx="177.16536"
       sodipodi:cy="124.01574"
       sodipodi:rx="35.433071"
       sodipodi:ry="35.433071"
       d="m 212.59843,124.01574 a 35.433071,35.433071 0 1 1 -70.86614,0 35.433071,35.433071 0 1 1 70.86614,0 z" />
    <path
       transform="translate(-17.716538,520.86613)"
       sodipodi:type="arc"
       style="fill:#000000;fill-opacity:1;stroke:#000000;stroke-width:0.5;stroke-linecap:round;stroke-miterlimit:4;stroke-opacity:1;stroke-dasharray:none;stroke-dashoffset:0"
       id="path2993-4"
       sodipodi:cx="177.16536"
       sodipodi:cy="124.01574"
       sodipodi:rx="35.433071"
       sodipodi:ry="35.433071"
       d="m 212.59843,124.01574 a 35.433071,35.433071 0 1 1 -70.86614,0 35.433071,35.433071 0 1 1 70.86614,0 z" />
    <path
       transform="translate(88.582673,520.86613)"
       sodipodi:type="arc"
       style="fill:#000000;fill-opacity:1;stroke:#000000;stroke-width:0.5;stroke-linecap:round;stroke-miterlimit:4;stroke-opacity:1;stroke-dasharray:none;stroke-dashoffset:0"
       id="path2993-3-1"
       sodipodi:cx="177.16536"
       sodipodi:cy="124.01574"
       sodipodi:rx="35.433071"
       sodipodi:ry="35.433071"
       d="m 212.59843,124.01574 a 35.433071,35.433071 0 1 1 -70.86614,0 35.433071,35.433071 0 1 1 70.86614,0 z" />
    <path
       transform="translate(194.88189,520.86613)"
       sodipodi:type="arc"
       style="fill:#000000;fill-opacity:1;stroke:#000000;stroke-width:0.5;stroke-linecap:round;stroke-miterlimit:4;stroke-opacity:1;stroke-dasharray:none;stroke-dashoffset:0"
       id="path2993-36-1"
       sodipodi:cx="177.16536"
       sodipodi:cy="124.01574"
       sodipodi:rx="35.433071"
       sodipodi:ry="35.433071"
       d="m 212.59843,124.01574 a 35.433071,35.433071 0 1 1 -70.86614,0 35.433071,35.433071 0 1 1 70.86614,0 z" />
    <path
       transform="translate(301.1811,520.86613)"
       sodipodi:type="arc"
       style="fill:#000000;fill-opacity:1;stroke:#000000;stroke-width:0.5;stroke-linecap:round;stroke-miterlimit:4;stroke-opacity:1;stroke-dasharray:none;stroke-dashoffset:0"
       id="path2993-1-0"
       sodipodi:cx="177.16536"
       sodipodi:cy="124.01574"
       sodipodi:rx="35.433071"
       sodipodi:ry="35.433071"
       d="m 212.59843,124.01574 a 35.433071,35.433071 0 1 1 -70.86614,0 35.433071,35.433071 0 1 1 70.86614,0 z" />
    <path
       transform="translate(407.48031,520.86613)"
       sodipodi:type="arc"
       style="fill:#000000;fill-opacity:1;stroke:#000000;stroke-width:0.5;stroke-linecap:round;stroke-miterlimit:4;stroke-opacity:1;stroke-dasharray:none;stroke-dashoffset:0"
       id="path2993-0-0"
       sodipodi:cx="177.16536"
       sodipodi:cy="124.01574"
       sodipodi:rx="35.433071"
       sodipodi:ry="35.433071"
       d="m 212.59843,124.01574 a 35.433071,35.433071 0 1 1 -70.86614,0 35.433071,35.433071 0 1 1 70.86614,0 z" />
    <path
       transform="translate(513.77952,520.86613)"
       sodipodi:type="arc"
       style="fill:#000000;fill-opacity:1;stroke:#000000;stroke-width:0.5;stroke-linecap:round;stroke-miterlimit:4;stroke-opacity:1;stroke-dasharray:none;stroke-dashoffset:0"
       id="path2993-31-3"
       sodipodi:cx="177.16536"
       sodipodi:cy="124.01574"
       sodipodi:rx="35.433071"
       sodipodi:ry="35.433071"
       d="m 212.59843,124.01574 a 35.433071,35.433071 0 1 1 -70.86614,0 35.433071,35.433071 0 1 1 70.86614,0 z" />
    <path
       transform="translate(620.07874,520.86613)"
       sodipodi:type="arc"
       style="fill:#000000;fill-opacity:1;stroke:#000000;stroke-width:0.5;stroke-linecap:round;stroke-miterlimit:4;stroke-opacity:1;stroke-dasharray:none;stroke-dashoffset:0"
       id="path2993-7-1"
       sodipodi:cx="177.16536"
       sodipodi:cy="124.01574"
       sodipodi:rx="35.433071"
       sodipodi:ry="35.433071"
       d="m 212.59843,124.01574 a 35.433071,35.433071 0 1 1 -70.86614,0 35.433071,35.433071 0 1 1 70.86614,0 z" />
    <path
       transform="translate(726.37795,520.86613)"
       sodipodi:type="arc"
       style="fill:#000000;fill-opacity:1;stroke:#000000;stroke-width:0.5;stroke-linecap:round;stroke-miterlimit:4;stroke-opacity:1;stroke-dasharray:none;stroke-dashoffset:0"
       id="path2993-2-9"
       sodipodi:cx="177.16536"
       sodipodi:cy="124.01574"
       sodipodi:rx="35.433071"
       sodipodi:ry="35.433071"
       d="m 212.59843,124.01574 a 35.433071,35.433071 0 1 1 -70.86614,0 35.433071,35.433071 0 1 1 70.86614,0 z" />
    <path
       transform="translate(-17.716538,627.16534)"
       sodipodi:type="arc"
       style="fill:#000000;fill-opacity:1;stroke:#000000;stroke-width:0.5;stroke-linecap:round;stroke-miterlimit:4;stroke-opacity:1;stroke-dasharray:none;stroke-dashoffset:0"
       id="path2993-6"
       sodipodi:cx="177.16536"
       sodipodi:cy="124.01574"
       sodipodi:rx="35.433071"
       sodipodi:ry="35.433071"
       d="m 212.59843,124.01574 a 35.433071,35.433071 0 1 1 -70.86614,0 35.433071,35.433071 0 1 1 70.86614,0 z" />
    <path
       transform="translate(88.582673,627.16534)"
       sodipodi:type="arc"
       style="fill:#000000;fill-opacity:1;stroke:#000000;stroke-width:0.5;stroke-linecap:round;stroke-miterlimit:4;stroke-opacity:1;stroke-dasharray:none;stroke-dashoffset:0"
       id="path2993-3-54"
       sodipodi:cx="177.16536"
       sodipodi:cy="124.01574"
       sodipodi:rx="35.433071"
       sodipodi:ry="35.433071"
       d="m 212.59843,124.01574 a 35.433071,35.433071 0 1 1 -70.86614,0 35.433071,35.433071 0 1 1 70.86614,0 z" />
    <path
       transform="translate(194.88189,627.16534)"
       sodipodi:type="arc"
       style="fill:#000000;fill-opacity:1;stroke:#000000;stroke-width:0.5;stroke-linecap:round;stroke-miterlimit:4;stroke-opacity:1;stroke-dasharray:none;stroke-dashoffset:0"
       id="path2993-36-80"
       sodipodi:cx="177.16536"
       sodipodi:cy="124.01574"
       sodipodi:rx="35.433071"
       sodipodi:ry="35.433071"
       d="m 212.59843,124.01574 a 35.433071,35.433071 0 1 1 -70.86614,0 35.433071,35.433071 0 1 1 70.86614,0 z" />
    <path
       transform="translate(301.1811,627.16534)"
       sodipodi:type="arc"
       style="fill:#000000;fill-opacity:1;stroke:#000000;stroke-width:0.5;stroke-linecap:round;stroke-miterlimit:4;stroke-opacity:1;stroke-dasharray:none;stroke-dashoffset:0"
       id="path2993-1-9"
       sodipodi:cx="177.16536"
       sodipodi:cy="124.01574"
       sodipodi:rx="35.433071"
       sodipodi:ry="35.433071"
       d="m 212.59843,124.01574 a 35.433071,35.433071 0 1 1 -70.86614,0 35.433071,35.433071 0 1 1 70.86614,0 z" />
    <path
       transform="translate(407.48031,627.16534)"
       sodipodi:type="arc"
       style="fill:#000000;fill-opacity:1;stroke:#000000;stroke-width:0.5;stroke-linecap:round;stroke-miterlimit:4;stroke-opacity:1;stroke-dasharray:none;stroke-dashoffset:0"
       id="path2993-0-9"
       sodipodi:cx="177.16536"
       sodipodi:cy="124.01574"
       sodipodi:rx="35.433071"
       sodipodi:ry="35.433071"
       d="m 212.59843,124.01574 a 35.433071,35.433071 0 1 1 -70.86614,0 35.433071,35.433071 0 1 1 70.86614,0 z" />
    <path
       transform="translate(513.77952,627.16534)"
       sodipodi:type="arc"
       style="fill:#000000;fill-opacity:1;stroke:#000000;stroke-width:0.5;stroke-linecap:round;stroke-miterlimit:4;stroke-opacity:1;stroke-dasharray:none;stroke-dashoffset:0"
       id="path2993-31-7"
       sodipodi:cx="177.16536"
       sodipodi:cy="124.01574"
       sodipodi:rx="35.433071"
       sodipodi:ry="35.433071"
       d="m 212.59843,124.01574 a 35.433071,35.433071 0 1 1 -70.86614,0 35.433071,35.433071 0 1 1 70.86614,0 z" />
    <path
       transform="translate(620.07874,627.16534)"
       sodipodi:type="arc"
       style="fill:#000000;fill-opacity:1;stroke:#000000;stroke-width:0.5;stroke-linecap:round;stroke-miterlimit:4;stroke-opacity:1;stroke-dasharray:none;stroke-dashoffset:0"
       id="path2993-7-2"
       sodipodi:cx="177.16536"
       sodipodi:cy="124.01574"
       sodipodi:rx="35.433071"
       sodipodi:ry="35.433071"
       d="m 212.59843,124.01574 a 35.433071,35.433071 0 1 1 -70.86614,0 35.433071,35.433071 0 1 1 70.86614,0 z" />
    <path
       transform="translate(726.37795,627.16534)"
       sodipodi:type="arc"
       style="fill:#000000;fill-opacity:1;stroke:#000000;stroke-width:0.5;stroke-linecap:round;stroke-miterlimit:4;stroke-opacity:1;stroke-dasharray:none;stroke-dashoffset:0"
       id="path2993-2-1"
       sodipodi:cx="177.16536"
       sodipodi:cy="124.01574"
       sodipodi:rx="35.433071"
       sodipodi:ry="35.433071"
       d="m 212.59843,124.01574 a 35.433071,35.433071 0 1 1 -70.86614,0 35.433071,35.433071 0 1 1 70.86614,0 z" />
    <path
       transform="translate(-17.716538,733.46455)"
       sodipodi:type="arc"
       style="fill:#000000;fill-opacity:1;stroke:#000000;stroke-width:0.5;stroke-linecap:round;stroke-miterlimit:4;stroke-opacity:1;stroke-dasharray:none;stroke-dashoffset:0"
       id="path2993-08"
       sodipodi:cx="177.16536"
       sodipodi:cy="124.01574"
       sodipodi:rx="35.433071"
       sodipodi:ry="35.433071"
       d="m 212.59843,124.01574 a 35.433071,35.433071 0 1 1 -70.86614,0 35.433071,35.433071 0 1 1 70.86614,0 z" />
    <path
       transform="translate(88.582673,733.46455)"
       sodipodi:type="arc"
       style="fill:#000000;fill-opacity:1;stroke:#000000;stroke-width:0.5;stroke-linecap:round;stroke-miterlimit:4;stroke-opacity:1;stroke-dasharray:none;stroke-dashoffset:0"
       id="path2993-3-57"
       sodipodi:cx="177.16536"
       sodipodi:cy="124.01574"
       sodipodi:rx="35.433071"
       sodipodi:ry="35.433071"
       d="m 212.59843,124.01574 a 35.433071,35.433071 0 1 1 -70.86614,0 35.433071,35.433071 0 1 1 70.86614,0 z" />
    <path
       transform="translate(194.88189,733.46455)"
       sodipodi:type="arc"
       style="fill:#000000;fill-opacity:1;stroke:#000000;stroke-width:0.5;stroke-linecap:round;stroke-miterlimit:4;stroke-opacity:1;stroke-dasharray:none;stroke-dashoffset:0"
       id="path2993-36-6"
       sodipodi:cx="177.16536"
       sodipodi:cy="124.01574"
       sodipodi:rx="35.433071"
       sodipodi:ry="35.433071"
       d="m 212.59843,124.01574 a 35.433071,35.433071 0 1 1 -70.86614,0 35.433071,35.433071 0 1 1 70.86614,0 z" />
    <path
       transform="translate(301.1811,733.46455)"
       sodipodi:type="arc"
       style="fill:#000000;fill-opacity:1;stroke:#000000;stroke-width:0.5;stroke-linecap:round;stroke-miterlimit:4;stroke-opacity:1;stroke-dasharray:none;stroke-dashoffset:0"
       id="path2993-1-8"
       sodipodi:cx="177.16536"
       sodipodi:cy="124.01574"
       sodipodi:rx="35.433071"
       sodipodi:ry="35.433071"
       d="m 212.59843,124.01574 a 35.433071,35.433071 0 1 1 -70.86614,0 35.433071,35.433071 0 1 1 70.86614,0 z" />
    <path
       transform="translate(407.48031,733.46455)"
       sodipodi:type="arc"
       style="fill:#000000;fill-opacity:1;stroke:#000000;stroke-width:0.5;stroke-linecap:round;stroke-miterlimit:4;stroke-opacity:1;stroke-dasharray:none;stroke-dashoffset:0"
       id="path2993-0-98"
       sodipodi:cx="177.16536"
       sodipodi:cy="124.01574"
       sodipodi:rx="35.433071"
       sodipodi:ry="35.433071"
       d="m 212.59843,124.01574 a 35.433071,35.433071 0 1 1 -70.86614,0 35.433071,35.433071 0 1 1 70.86614,0 z" />
    <path
       transform="translate(513.77952,733.46455)"
       sodipodi:type="arc"
       style="fill:#000000;fill-opacity:1;stroke:#000000;stroke-width:0.5;stroke-linecap:round;stroke-miterlimit:4;stroke-opacity:1;stroke-dasharray:none;stroke-dashoffset:0"
       id="path2993-31-4"
       sodipodi:cx="177.16536"
       sodipodi:cy="124.01574"
       sodipodi:rx="35.433071"
       sodipodi:ry="35.433071"
       d="m 212.59843,124.01574 a 35.433071,35.433071 0 1 1 -70.86614,0 35.433071,35.433071 0 1 1 70.86614,0 z" />
    <path
       transform="translate(620.07874,733.46455)"
       sodipodi:type="arc"
       style="fill:#000000;fill-opacity:1;stroke:#000000;stroke-width:0.5;stroke-linecap:round;stroke-miterlimit:4;stroke-opacity:1;stroke-dasharray:none;stroke-dashoffset:0"
       id="path2993-7-3"
       sodipodi:cx="177.16536"
       sodipodi:cy="124.01574"
       sodipodi:rx="35.433071"
       sodipodi:ry="35.433071"
       d="m 212.59843,124.01574 a 35.433071,35.433071 0 1 1 -70.86614,0 35.433071,35.433071 0 1 1 70.86614,0 z" />
    <path
       transform="translate(726.37795,733.46455)"
       sodipodi:type="arc"
       style="fill:#000000;fill-opacity:1;stroke:#000000;stroke-width:0.5;stroke-linecap:round;stroke-miterlimit:4;stroke-opacity:1;stroke-dasharray:none;stroke-dashoffset:0"
       id="path2993-2-2"
       sodipodi:cx="177.16536"
       sodipodi:cy="124.01574"
       sodipodi:rx="35.433071"
       sodipodi:ry="35.433071"
       d="m 212.59843,124.01574 a 35.433071,35.433071 0 1 1 -70.86614,0 35.433071,35.433071 0 1 1 70.86614,0 z" />
    <path
       transform="translate(-17.716538,839.76377)"
       sodipodi:type="arc"
       style="fill:#000000;fill-opacity:1;stroke:#000000;stroke-width:0.5;stroke-linecap:round;stroke-miterlimit:4;stroke-opacity:1;stroke-dasharray:none;stroke-dashoffset:0"
       id="path2993-35"
       sodipodi:cx="177.16536"
       sodipodi:cy="124.01574"
       sodipodi:rx="35.433071"
       sodipodi:ry="35.433071"
       d="m 212.59843,124.01574 a 35.433071,35.433071 0 1 1 -70.86614,0 35.433071,35.433071 0 1 1 70.86614,0 z" />
    <path
       transform="translate(88.582673,839.76377)"
       sodipodi:type="arc"
       style="fill:#000000;fill-opacity:1;stroke:#000000;stroke-width:0.5;stroke-linecap:round;stroke-miterlimit:4;stroke-opacity:1;stroke-dasharray:none;stroke-dashoffset:0"
       id="path2993-3-7"
       sodipodi:cx="177.16536"
       sodipodi:cy="124.01574"
       sodipodi:rx="35.433071"
       sodipodi:ry="35.433071"
       d="m 212.59843,124.01574 a 35.433071,35.433071 0 1 1 -70.86614,0 35.433071,35.433071 0 1 1 70.86614,0 z" />
    <path
       transform="translate(194.88189,839.76377)"
       sodipodi:type="arc"
       style="fill:#000000;fill-opacity:1;stroke:#000000;stroke-width:0.5;stroke-linecap:round;stroke-miterlimit:4;stroke-opacity:1;stroke-dasharray:none;stroke-dashoffset:0"
       id="path2993-36-5"
       sodipodi:cx="177.16536"
       sodipodi:cy="124.01574"
       sodipodi:rx="35.433071"
       sodipodi:ry="35.433071"
       d="m 212.59843,124.01574 a 35.433071,35.433071 0 1 1 -70.86614,0 35.433071,35.433071 0 1 1 70.86614,0 z" />
    <path
       transform="translate(301.1811,839.76377)"
       sodipodi:type="arc"
       style="fill:#000000;fill-opacity:1;stroke:#000000;stroke-width:0.5;stroke-linecap:round;stroke-miterlimit:4;stroke-opacity:1;stroke-dasharray:none;stroke-dashoffset:0"
       id="path2993-1-56"
       sodipodi:cx="177.16536"
       sodipodi:cy="124.01574"
       sodipodi:rx="35.433071"
       sodipodi:ry="35.433071"
       d="m 212.59843,124.01574 a 35.433071,35.433071 0 1 1 -70.86614,0 35.433071,35.433071 0 1 1 70.86614,0 z" />
    <path
       transform="translate(407.48031,839.76377)"
       sodipodi:type="arc"
       style="fill:#000000;fill-opacity:1;stroke:#000000;stroke-width:0.5;stroke-linecap:round;stroke-miterlimit:4;stroke-opacity:1;stroke-dasharray:none;stroke-dashoffset:0"
       id="path2993-0-4"
       sodipodi:cx="177.16536"
       sodipodi:cy="124.01574"
       sodipodi:rx="35.433071"
       sodipodi:ry="35.433071"
       d="m 212.59843,124.01574 a 35.433071,35.433071 0 1 1 -70.86614,0 35.433071,35.433071 0 1 1 70.86614,0 z" />
    <path
       transform="translate(513.77952,839.76377)"
       sodipodi:type="arc"
       style="fill:#000000;fill-opacity:1;stroke:#000000;stroke-width:0.5;stroke-linecap:round;stroke-miterlimit:4;stroke-opacity:1;stroke-dasharray:none;stroke-dashoffset:0"
       id="path2993-31-9"
       sodipodi:cx="177.16536"
       sodipodi:cy="124.01574"
       sodipodi:rx="35.433071"
       sodipodi:ry="35.433071"
       d="m 212.59843,124.01574 a 35.433071,35.433071 0 1 1 -70.86614,0 35.433071,35.433071 0 1 1 70.86614,0 z" />
    <path
       transform="translate(620.07874,839.76377)"
       sodipodi:type="arc"
       style="fill:#000000;fill-opacity:1;stroke:#000000;stroke-width:0.5;stroke-linecap:round;stroke-miterlimit:4;stroke-opacity:1;stroke-dasharray:none;stroke-dashoffset:0"
       id="path2993-7-21"
       sodipodi:cx="177.16536"
       sodipodi:cy="124.01574"
       sodipodi:rx="35.433071"
       sodipodi:ry="35.433071"
       d="m 212.59843,124.01574 a 35.433071,35.433071 0 1 1 -70.86614,0 35.433071,35.433071 0 1 1 70.86614,0 z" />
    <path
       transform="translate(726.37795,839.76377)"
       sodipodi:type="arc"
       style="fill:#000000;fill-opacity:1;stroke:#000000;stroke-width:0.5;stroke-linecap:round;stroke-miterlimit:4;stroke-opacity:1;stroke-dasharray:none;stroke-dashoffset:0"
       id="path2993-2-4"
       sodipodi:cx="177.16536"
       sodipodi:cy="124.01574"
       sodipodi:rx="35.433071"
       sodipodi:ry="35.433071"
       d="m 212.59843,124.01574 a 35.433071,35.433071 0 1 1 -70.86614,0 35.433071,35.433071 0 1 1 70.86614,0 z" />
  </g>
</svg>
